<svg width="136" height="44" viewBox="0 0 136 44" fill="none" xmlns="http://www.w3.org/2000/svg">
<rect width="136" height="44" rx="10" fill="white"/>
<path d="M66.8037 23.6299C64.6145 23.6299 62.8303 25.295 62.8303 27.5884C62.8303 29.8679 64.6145 31.547 66.8037 31.547C68.9938 31.547 70.7781 29.8679 70.7781 27.5884C70.7772 25.295 68.9929 23.6299 66.8037 23.6299ZM66.8037 29.9889C65.604 29.9889 64.5699 28.9995 64.5699 27.5894C64.5699 26.1644 65.6049 25.1898 66.8037 25.1898C68.0035 25.1898 69.0376 26.1644 69.0376 27.5894C69.0376 28.9985 68.0035 29.9889 66.8037 29.9889ZM58.1345 23.6299C55.9454 23.6299 54.1611 25.295 54.1611 27.5884C54.1611 29.8679 55.9454 31.547 58.1345 31.547C60.3246 31.547 62.1089 29.8679 62.1089 27.5884C62.1089 25.295 60.3246 23.6299 58.1345 23.6299ZM58.1345 29.9889C56.9348 29.9889 55.9007 28.9995 55.9007 27.5894C55.9007 26.1644 56.9357 25.1898 58.1345 25.1898C59.3343 25.1898 60.3684 26.1644 60.3684 27.5894C60.3693 28.9985 59.3343 29.9889 58.1345 29.9889ZM47.8235 24.8454V26.5246H51.8425C51.7225 27.4693 51.4079 28.159 50.9276 28.6383C50.3431 29.2229 49.4281 29.8679 47.8235 29.8679C45.3495 29.8679 43.4153 27.8732 43.4153 25.3993C43.4153 22.9253 45.3495 20.9306 47.8235 20.9306C49.1582 20.9306 50.1327 21.4556 50.8522 22.1304L52.0371 20.9455C51.0318 19.9859 49.698 19.2515 47.8235 19.2515C44.4345 19.2515 41.5854 22.0103 41.5854 25.3993C41.5854 28.7882 44.4345 31.547 47.8235 31.547C49.6524 31.547 51.0328 30.9466 52.1115 29.8223C53.221 28.7128 53.5663 27.1528 53.5663 25.8935C53.5663 25.5044 53.5365 25.1442 53.476 24.8445H47.8235V24.8454ZM89.9948 26.1495C89.6653 25.2652 88.66 23.6299 86.6058 23.6299C84.5665 23.6299 82.8716 25.2345 82.8716 27.5884C82.8716 29.8074 84.5516 31.547 86.8004 31.547C88.6144 31.547 89.6643 30.4375 90.0999 29.7925L88.7503 28.8924C88.3008 29.5523 87.6855 29.987 86.8004 29.987C85.9161 29.987 85.286 29.5821 84.8811 28.7873L90.1744 26.5981L89.9948 26.1495ZM84.5963 27.4693C84.5516 25.9391 85.7812 25.16 86.6663 25.16C87.356 25.16 87.9405 25.5054 88.136 25.9996L84.5963 27.4693ZM80.2933 31.3078H82.032V19.6722H80.2933V31.3078ZM77.4433 24.515H77.3838C76.9938 24.0496 76.2436 23.6299 75.2998 23.6299C73.32 23.6299 71.506 25.3695 71.506 27.6042C71.506 29.8232 73.32 31.5479 75.2998 31.5479C76.2445 31.5479 76.9938 31.1281 77.3838 30.6488H77.4433V31.2184C77.4433 32.7328 76.6336 33.5426 75.3296 33.5426C74.2648 33.5426 73.6048 32.7784 73.3349 32.1334L71.8206 32.7635C72.2552 33.8125 73.4094 35.1025 75.3296 35.1025C77.3689 35.1025 79.0936 33.9028 79.0936 30.9783V23.8709H77.4443V24.515H77.4433ZM75.4496 29.9889C74.2499 29.9889 73.2456 28.9837 73.2456 27.6042C73.2456 26.209 74.2499 25.1898 75.4496 25.1898C76.6336 25.1898 77.5634 26.209 77.5634 27.6042C77.5634 28.9837 76.6336 29.9889 75.4496 29.9889ZM98.1427 19.6722H93.9812V31.3078H95.7171V26.8997H98.1418C100.067 26.8997 101.96 25.5063 101.96 23.2864C101.96 21.0665 100.068 19.6722 98.1427 19.6722ZM98.1874 25.2801H95.7171V21.2918H98.1874C99.4858 21.2918 100.223 22.3668 100.223 23.2864C100.223 24.1874 99.4858 25.2801 98.1874 25.2801ZM108.921 23.6094C107.664 23.6094 106.361 24.1632 105.822 25.3909L107.364 26.034C107.693 25.3909 108.308 25.1805 108.951 25.1805C109.849 25.1805 110.762 25.7194 110.777 26.6772V26.7973C110.462 26.6176 109.788 26.3486 108.966 26.3486C107.304 26.3486 105.612 27.2617 105.612 28.9678C105.612 30.525 106.975 31.5274 108.501 31.5274C109.668 31.5274 110.313 31.0034 110.716 30.3891H110.776V31.2873H112.453V26.8261C112.454 24.7617 110.911 23.6094 108.921 23.6094ZM108.711 29.9861C108.143 29.9861 107.349 29.7013 107.349 28.9976C107.349 28.0994 108.337 27.755 109.191 27.755C109.953 27.755 110.313 27.9198 110.777 28.1441C110.642 29.2229 109.714 29.9861 108.711 29.9861ZM118.561 23.8635L116.57 28.9083H116.511L114.444 23.8635H112.573L115.672 30.9141L113.905 34.8363H115.717L120.492 23.8635H118.561ZM102.918 31.3078H104.654V19.6722H102.918V31.3078Z" fill="#344054"/>
<path d="M47.5201 12.9184C47.5201 13.6984 47.2892 14.3192 46.8266 14.7828C46.3017 15.3338 45.6166 15.6093 44.7752 15.6093C43.9692 15.6093 43.2832 15.33 42.7201 14.7716C42.156 14.2122 41.874 13.5197 41.874 12.6932C41.874 11.8657 42.156 11.1732 42.7201 10.6148C43.2832 10.0554 43.9692 9.77615 44.7752 9.77615C45.1755 9.77615 45.558 9.85433 45.921 10.0098C46.2849 10.1661 46.5763 10.3737 46.7941 10.6334L46.3036 11.1248C45.934 10.6827 45.4249 10.4621 44.7743 10.4621C44.1861 10.4621 43.6779 10.6688 43.2488 11.082C42.8197 11.4953 42.6056 12.0323 42.6056 12.6922C42.6056 13.3522 42.8197 13.8892 43.2488 14.3025C43.6779 14.7157 44.1861 14.9224 44.7743 14.9224C45.3979 14.9224 45.9182 14.7148 46.3343 14.2988C46.6042 14.0279 46.7606 13.6509 46.8024 13.1679H44.7743V12.4968H47.48C47.508 12.6429 47.5201 12.7835 47.5201 12.9184Z" fill="#344054"/>
<path d="M51.811 10.586H49.2681V12.3563H51.5616V13.0274H49.2681V14.7977H51.811V15.4846H48.5505V9.89999H51.811V10.586Z" fill="#344054"/>
<path d="M54.8368 15.4846H54.1192V10.586H52.5592V9.89999H56.3968V10.586H54.8368V15.4846Z" fill="#344054"/>
<path d="M59.1732 15.4846V9.89999H59.8909V15.4846H59.1732Z" fill="#344054"/>
<path d="M63.0733 15.4846H62.3557V10.586H60.7957V9.89999H64.6333V10.586H63.0733V15.4846Z" fill="#344054"/>
<path d="M71.8977 14.7633C71.3486 15.3273 70.6663 15.6093 69.85 15.6093C69.0337 15.6093 68.3515 15.3273 67.8033 14.7633C67.2541 14.1992 66.9805 13.5086 66.9805 12.6923C66.9805 11.876 67.2541 11.1854 67.8033 10.6213C68.3515 10.0573 69.0337 9.77433 69.85 9.77433C70.6617 9.77433 71.343 10.0582 71.894 10.6251C72.445 11.1919 72.7205 11.8807 72.7205 12.6923C72.7205 13.5086 72.446 14.1992 71.8977 14.7633ZM68.3329 14.2951C68.7461 14.7139 69.2515 14.9224 69.85 14.9224C70.4485 14.9224 70.9549 14.713 71.3672 14.2951C71.7805 13.8762 71.988 13.342 71.988 12.6923C71.988 12.0426 71.7805 11.5084 71.3672 11.0895C70.9549 10.6707 70.4485 10.4622 69.85 10.4622C69.2515 10.4622 68.7461 10.6716 68.3329 11.0895C67.9206 11.5084 67.713 12.0426 67.713 12.6923C67.713 13.342 67.9206 13.8762 68.3329 14.2951Z" fill="#344054"/>
<path d="M73.7276 15.4846V9.89999H74.6007L77.3148 14.2439H77.3455L77.3148 13.1679V9.89999H78.0324V15.4846H77.2832L74.4434 10.9294H74.4127L74.4434 12.0054V15.4846H73.7276Z" fill="#344054"/>
<path d="M47.5201 12.9184C47.5201 13.6984 47.2892 14.3192 46.8266 14.7828C46.3017 15.3338 45.6166 15.6093 44.7752 15.6093C43.9692 15.6093 43.2832 15.33 42.7201 14.7716C42.156 14.2122 41.874 13.5197 41.874 12.6932C41.874 11.8657 42.156 11.1732 42.7201 10.6148C43.2832 10.0554 43.9692 9.77615 44.7752 9.77615C45.1755 9.77615 45.558 9.85433 45.921 10.0098C46.2849 10.1661 46.5763 10.3737 46.7941 10.6334L46.3036 11.1248C45.934 10.6827 45.4249 10.4621 44.7743 10.4621C44.1861 10.4621 43.6779 10.6688 43.2488 11.082C42.8197 11.4953 42.6056 12.0323 42.6056 12.6922C42.6056 13.3522 42.8197 13.8892 43.2488 14.3025C43.6779 14.7157 44.1861 14.9224 44.7743 14.9224C45.3979 14.9224 45.9182 14.7148 46.3343 14.2988C46.6042 14.0279 46.7606 13.6509 46.8024 13.1679H44.7743V12.4968H47.48C47.508 12.6429 47.5201 12.7835 47.5201 12.9184Z" stroke="white" stroke-width="0.169231" stroke-miterlimit="10"/>
<path d="M51.811 10.586H49.2681V12.3563H51.5616V13.0274H49.2681V14.7977H51.811V15.4846H48.5505V9.89999H51.811V10.586Z" stroke="white" stroke-width="0.169231" stroke-miterlimit="10"/>
<path d="M54.8368 15.4846H54.1192V10.586H52.5592V9.89999H56.3968V10.586H54.8368V15.4846Z" stroke="white" stroke-width="0.169231" stroke-miterlimit="10"/>
<path d="M59.1732 15.4846V9.89999H59.8909V15.4846H59.1732Z" stroke="white" stroke-width="0.169231" stroke-miterlimit="10"/>
<path d="M63.0733 15.4846H62.3557V10.586H60.7957V9.89999H64.6333V10.586H63.0733V15.4846Z" stroke="white" stroke-width="0.169231" stroke-miterlimit="10"/>
<path d="M71.8977 14.7633C71.3486 15.3273 70.6663 15.6093 69.85 15.6093C69.0337 15.6093 68.3515 15.3273 67.8033 14.7633C67.2541 14.1992 66.9805 13.5086 66.9805 12.6923C66.9805 11.876 67.2541 11.1854 67.8033 10.6213C68.3515 10.0573 69.0337 9.77433 69.85 9.77433C70.6617 9.77433 71.343 10.0582 71.894 10.6251C72.445 11.1919 72.7205 11.8807 72.7205 12.6923C72.7205 13.5086 72.446 14.1992 71.8977 14.7633ZM68.3329 14.2951C68.7461 14.7139 69.2515 14.9224 69.85 14.9224C70.4485 14.9224 70.9549 14.713 71.3672 14.2951C71.7805 13.8762 71.988 13.342 71.988 12.6923C71.988 12.0426 71.7805 11.5084 71.3672 11.0895C70.9549 10.6707 70.4485 10.4622 69.85 10.4622C69.2515 10.4622 68.7461 10.6716 68.3329 11.0895C67.9206 11.5084 67.713 12.0426 67.713 12.6923C67.713 13.342 67.9206 13.8762 68.3329 14.2951Z" stroke="white" stroke-width="0.169231" stroke-miterlimit="10"/>
<path d="M73.7276 15.4846V9.89999H74.6007L77.3148 14.2439H77.3455L77.3148 13.1679V9.89999H78.0324V15.4846H77.2832L74.4434 10.9294H74.4127L74.4434 12.0054V15.4846H73.7276Z" stroke="white" stroke-width="0.169231" stroke-miterlimit="10"/>
<g filter="url(#filter0_ii_1002_3965)">
<path d="M13.0984 10.4007C12.8276 10.6874 12.6675 11.1323 12.6675 11.7084V32.2933C12.6675 32.8704 12.8276 33.3144 13.0984 33.601L13.1673 33.668L24.6986 22.1367V22.0009V21.865L13.1673 10.3327L13.0984 10.4007Z" fill="url(#paint0_linear_1002_3965)"/>
<path d="M28.5419 25.9818L24.6987 22.1368V22.0009V21.865L28.5428 18.0209L28.6294 18.0703L33.1836 20.6578C34.4839 21.3968 34.4839 22.6059 33.1836 23.3459L28.6294 25.9334L28.5419 25.9818Z" fill="url(#paint1_linear_1002_3965)"/>
<g filter="url(#filter1_i_1002_3965)">
<path d="M28.6295 25.9325L24.6979 22.0009L13.0986 33.6011C13.5268 34.0553 14.2351 34.1112 15.0328 33.6588L28.6295 25.9325Z" fill="url(#paint2_linear_1002_3965)"/>
</g>
<path d="M28.6295 18.0693L15.0328 10.3439C14.2351 9.89064 13.5268 9.94742 13.0986 10.4016L24.6988 22.0018L28.6295 18.0693Z" fill="url(#paint3_linear_1002_3965)"/>
</g>
<defs>
<filter id="filter0_ii_1002_3965" x="12.6675" y="10.0311" width="21.4912" height="23.9401" filterUnits="userSpaceOnUse" color-interpolation-filters="sRGB">
<feFlood flood-opacity="0" result="BackgroundImageFix"/>
<feBlend mode="normal" in="SourceGraphic" in2="BackgroundImageFix" result="shape"/>
<feColorMatrix in="SourceAlpha" type="matrix" values="0 0 0 0 0 0 0 0 0 0 0 0 0 0 0 0 0 0 127 0" result="hardAlpha"/>
<feOffset dy="-0.126923"/>
<feComposite in2="hardAlpha" operator="arithmetic" k2="-1" k3="1"/>
<feColorMatrix type="matrix" values="0 0 0 0 0 0 0 0 0 0 0 0 0 0 0 0 0 0 0.12 0"/>
<feBlend mode="normal" in2="shape" result="effect1_innerShadow_1002_3965"/>
<feColorMatrix in="SourceAlpha" type="matrix" values="0 0 0 0 0 0 0 0 0 0 0 0 0 0 0 0 0 0 127 0" result="hardAlpha"/>
<feOffset dy="0.126923"/>
<feComposite in2="hardAlpha" operator="arithmetic" k2="-1" k3="1"/>
<feColorMatrix type="matrix" values="0 0 0 0 1 0 0 0 0 1 0 0 0 0 1 0 0 0 0.25 0"/>
<feBlend mode="normal" in2="effect1_innerShadow_1002_3965" result="effect2_innerShadow_1002_3965"/>
</filter>
<filter id="filter1_i_1002_3965" x="13.0986" y="22.0009" width="15.5308" height="11.9703" filterUnits="userSpaceOnUse" color-interpolation-filters="sRGB">
<feFlood flood-opacity="0" result="BackgroundImageFix"/>
<feBlend mode="normal" in="SourceGraphic" in2="BackgroundImageFix" result="shape"/>
<feColorMatrix in="SourceAlpha" type="matrix" values="0 0 0 0 0 0 0 0 0 0 0 0 0 0 0 0 0 0 127 0" result="hardAlpha"/>
<feOffset dy="-0.126923"/>
<feComposite in2="hardAlpha" operator="arithmetic" k2="-1" k3="1"/>
<feColorMatrix type="matrix" values="0 0 0 0 0 0 0 0 0 0 0 0 0 0 0 0 0 0 0.08 0"/>
<feBlend mode="normal" in2="shape" result="effect1_innerShadow_1002_3965"/>
</filter>
<linearGradient id="paint0_linear_1002_3965" x1="23.6764" y1="11.4906" x2="8.05627" y2="27.1108" gradientUnits="userSpaceOnUse">
<stop stop-color="#00A0FF"/>
<stop offset="0.0066" stop-color="#00A1FF"/>
<stop offset="0.2601" stop-color="#00BEFF"/>
<stop offset="0.5122" stop-color="#00D2FF"/>
<stop offset="0.7604" stop-color="#00DFFF"/>
<stop offset="1" stop-color="#00E3FF"/>
</linearGradient>
<linearGradient id="paint1_linear_1002_3965" x1="34.8762" y1="22.0009" x2="12.3554" y2="22.0009" gradientUnits="userSpaceOnUse">
<stop stop-color="#FFE000"/>
<stop offset="0.4087" stop-color="#FFBD00"/>
<stop offset="0.7754" stop-color="#FFA500"/>
<stop offset="1" stop-color="#FF9C00"/>
</linearGradient>
<linearGradient id="paint2_linear_1002_3965" x1="26.4944" y1="24.136" x2="5.31145" y2="45.3189" gradientUnits="userSpaceOnUse">
<stop stop-color="#FF3A44"/>
<stop offset="1" stop-color="#C31162"/>
</linearGradient>
<linearGradient id="paint3_linear_1002_3965" x1="10.1773" y1="3.54913" x2="19.6361" y2="13.0079" gradientUnits="userSpaceOnUse">
<stop stop-color="#32A071"/>
<stop offset="0.0685" stop-color="#2DA771"/>
<stop offset="0.4762" stop-color="#15CF74"/>
<stop offset="0.8009" stop-color="#06E775"/>
<stop offset="1" stop-color="#00F076"/>
</linearGradient>
</defs>
</svg>
