<svg width="37" height="36" viewBox="0 0 37 36" fill="none" xmlns="http://www.w3.org/2000/svg">
<g clip-path="url(#clip0_1005_5888)">
<path d="M11.6034 15.1275L18.5946 8.13654L25.5896 15.1312L29.6576 11.0632L18.5946 0L7.5354 11.0595L11.6034 15.1275Z" fill="#A2AFC8"/>
<path d="M8.73052 17.9993L4.6626 13.9314L0.594479 17.9995L4.6624 22.0674L8.73052 17.9993Z" fill="#A2AFC8"/>
<path d="M11.6033 20.8726L18.5945 27.8635L25.5891 20.8691L29.6594 24.9349L29.6574 24.9371L18.5945 36.0001L7.53498 24.9408L7.5293 24.9351L11.6033 20.8726Z" fill="#A2AFC8"/>
<path d="M32.5269 22.0693L36.595 18.0012L32.5271 13.9333L28.4589 18.0014L32.5269 22.0693Z" fill="#A2AFC8"/>
<path d="M22.7208 17.9979H22.7226L18.5946 13.8699L15.5439 16.9205H15.5437L15.1934 17.2711L14.4703 17.9942L14.4646 17.9998L14.4703 18.0058L18.5946 22.1301L22.7226 18.0021L22.7245 17.9998L22.7208 17.9979Z" fill="#A2AFC8"/>
</g>
<defs>
<clipPath id="clip0_1005_5888">
<rect width="36" height="36" fill="white" transform="translate(0.75)"/>
</clipPath>
</defs>
</svg>
