<svg width="37" height="24" viewBox="0 0 37 24" fill="none" xmlns="http://www.w3.org/2000/svg">
<path d="M36.1697 16.5587L28.3852 3.05565C26.6786 0.241284 22.5169 0.211343 20.8702 3.17541L12.6965 17.2173C11.1695 19.7922 13.0557 23.0257 16.1097 23.0257H32.487C35.5709 23.0257 37.8763 19.7023 36.1697 16.5587Z" fill="#667085"/>
<path d="M24.9419 17.6067L24.4629 16.7684C24.0138 15.9899 23.0257 14.3132 23.0257 14.3132L16.4389 2.87617C14.7323 0.331257 10.6904 0.121676 8.98379 3.32526L1.31909 16.5887C-0.267744 19.3731 1.61849 22.9959 5.06162 23.0259H21.3491H28.2952H32.427C28.2054 23.0558 26.8582 20.8701 24.9419 17.6067Z" fill="#979FB0"/>
<path d="M24.9422 17.6067L24.4631 16.7685C24.0141 15.9901 23.026 14.3134 23.026 14.3134L18.7745 6.82837L12.6667 17.2475C11.1398 19.8224 13.026 23.0559 16.0799 23.0559H21.3194H28.2656H32.4273C28.1758 23.0259 26.8583 20.8703 24.9422 17.6067Z" fill="url(#paint0_linear_1005_5868)"/>
<defs>
<linearGradient id="paint0_linear_1005_5868" x1="10.493" y1="12.5134" x2="29.4146" y2="19.5057" gradientUnits="userSpaceOnUse">
<stop stop-color="#667085" stop-opacity="0"/>
<stop offset="1" stop-color="#667085"/>
</linearGradient>
</defs>
</svg>
