<svg width="48" height="48" viewBox="0 0 48 48" fill="none" xmlns="http://www.w3.org/2000/svg">
<rect width="48" height="48" rx="24" fill="#344054" fill-opacity="0.1"/>
<path d="M20.67 26H16C14.9 26 14 26.9 14 28V34H20.67V26Z" stroke="#344054" stroke-width="1.5" stroke-miterlimit="10" stroke-linecap="round" stroke-linejoin="round"/>
<path d="M25.3299 22H22.6599C21.5599 22 20.6599 22.9 20.6599 24V34H27.3299V24C27.3299 22.9 26.4399 22 25.3299 22Z" stroke="#344054" stroke-width="1.5" stroke-miterlimit="10" stroke-linecap="round" stroke-linejoin="round"/>
<path d="M32.0001 29H27.3301V34H34.0001V31C34.0001 29.9 33.1001 29 32.0001 29Z" stroke="#344054" stroke-width="1.5" stroke-miterlimit="10" stroke-linecap="round" stroke-linejoin="round"/>
<path d="M24.52 14.0701L25.05 15.1301C25.12 15.2801 25.31 15.4201 25.47 15.4401L26.43 15.6001C27.04 15.7001 27.19 16.15 26.75 16.58L26 17.33C25.87 17.46 25.8 17.7001 25.84 17.8701L26.05 18.7901C26.22 19.5201 25.83 19.8001 25.19 19.4201L24.29 18.8901C24.13 18.7901 23.86 18.7901 23.7 18.8901L22.8 19.4201C22.16 19.8001 21.77 19.5201 21.94 18.7901L22.15 17.8701C22.19 17.7001 22.12 17.45 21.99 17.33L21.25 16.5901C20.81 16.1501 20.95 15.71 21.57 15.61L22.53 15.4501C22.69 15.4201 22.88 15.2801 22.95 15.1401L23.48 14.08C23.77 13.5 24.23 13.5001 24.52 14.0701Z" stroke="#344054" stroke-width="1.5" stroke-linecap="round" stroke-linejoin="round"/>
</svg>
