<svg width="136" height="44" viewBox="0 0 136 44" fill="none" xmlns="http://www.w3.org/2000/svg">
<rect width="136" height="44" rx="10" fill="white"/>
<path d="M91.0713 21.1886V23.5148H89.5322V25.0404H91.0713V30.2239C91.0713 31.9939 91.9165 32.7019 94.0428 32.7019C94.4165 32.7019 94.7724 32.6597 95.0838 32.6092V31.1005C94.8169 31.1257 94.6478 31.1426 94.3542 31.1426C93.4023 31.1426 92.9841 30.7212 92.9841 29.7603V25.0404H95.0838V23.5148H92.9841V21.1886H91.0713Z" fill="#344054"/>
<path d="M100.5 32.8283C103.33 32.8283 105.064 31.033 105.064 28.0578C105.064 25.0994 103.321 23.2957 100.5 23.2957C97.6713 23.2957 95.9275 25.0994 95.9275 28.0578C95.9275 31.033 97.6624 32.8283 100.5 32.8283ZM100.5 31.2185C98.8368 31.2185 97.9026 30.0638 97.9026 28.0578C97.9026 26.0686 98.8368 24.9055 100.5 24.9055C102.155 24.9055 103.098 26.0686 103.098 28.0578C103.098 30.0553 102.155 31.2185 100.5 31.2185Z" fill="#344054"/>
<path d="M106.549 32.6513H108.462V27.2318C108.462 25.9422 109.485 25.0741 110.935 25.0741C111.273 25.0741 111.842 25.1331 112.003 25.1837V23.3968C111.798 23.3462 111.433 23.321 111.148 23.321C109.885 23.321 108.809 23.9784 108.533 24.8802H108.39V23.4727H106.549V32.6513Z" fill="#344054"/>
<path d="M116.752 24.8381C118.167 24.8381 119.092 25.7737 119.136 27.2149H114.243C114.35 25.7821 115.337 24.8381 116.752 24.8381ZM119.127 30.1733C118.771 30.8897 117.98 31.2859 116.823 31.2859C115.293 31.2859 114.305 30.266 114.243 28.6562V28.5551H121.085V27.9229C121.085 25.0404 119.457 23.2957 116.761 23.2957C114.03 23.2957 112.295 25.1584 112.295 28.0915C112.295 31.0246 113.994 32.8283 116.77 32.8283C118.985 32.8283 120.533 31.8169 120.969 30.1733H119.127Z" fill="#344054"/>
<path d="M78.5275 29.2618C78.675 31.5156 80.6576 32.9571 83.6084 32.9571C86.762 32.9571 88.7354 31.4457 88.7354 29.0346C88.7354 27.139 87.6104 26.0907 84.8809 25.4879L83.4147 25.1472C81.6811 24.7628 80.9803 24.2474 80.9803 23.3476C80.9803 22.2119 82.0684 21.4694 83.7006 21.4694C85.2498 21.4694 86.3194 22.1945 86.5131 23.3563H88.5233C88.4034 21.2335 86.4301 19.7397 83.7283 19.7397C80.8236 19.7397 78.8871 21.2335 78.8871 23.4786C78.8871 25.3306 79.9844 26.4314 82.3912 26.9642L84.1063 27.3574C85.8676 27.7505 86.6422 28.327 86.6422 29.288C86.6422 30.4062 85.425 31.2186 83.7651 31.2186C81.9854 31.2186 80.7498 30.4586 80.5746 29.2618H78.5275Z" fill="#344054"/>
<path d="M58.7129 23.321C57.3962 23.321 56.2574 23.9447 55.6702 24.9898H55.5278V23.4727H53.6862V35.7024H55.599V31.2606H55.7503C56.2574 32.2299 57.3517 32.803 58.7307 32.803C61.1773 32.803 62.7342 30.974 62.7342 28.0578C62.7342 25.1415 61.1773 23.321 58.7129 23.321ZM58.1702 31.1763C56.5688 31.1763 55.5634 29.9795 55.5634 28.0662C55.5634 26.1445 56.5688 24.9477 58.1791 24.9477C59.7983 24.9477 60.768 26.1192 60.768 28.0578C60.768 30.0048 59.7983 31.1763 58.1702 31.1763Z" fill="#344054"/>
<path d="M69.4274 23.321C68.1107 23.321 66.9719 23.9447 66.3847 24.9898H66.2423V23.4727H64.4007V35.7024H66.3135V31.2606H66.4648C66.9719 32.2299 68.0662 32.803 69.4452 32.803C71.8918 32.803 73.4487 30.974 73.4487 28.0578C73.4487 25.1415 71.8918 23.321 69.4274 23.321ZM68.8847 31.1763C67.2833 31.1763 66.2779 29.9795 66.2779 28.0662C66.2779 26.1445 67.2833 24.9477 68.8936 24.9477C70.5128 24.9477 71.4825 26.1192 71.4825 28.0578C71.4825 30.0048 70.5128 31.1763 68.8847 31.1763Z" fill="#344054"/>
<path d="M50.2543 32.6513H52.449L47.6447 20.0454H45.4224L40.6182 32.6513H42.739L43.9655 29.3055H49.0371L50.2543 32.6513ZM46.4275 22.3342H46.5843L48.5115 27.6631H44.4911L46.4275 22.3342Z" fill="#344054"/>
<path d="M41.9033 10.5372V16.6184H44.2209C46.1337 16.6184 47.2414 15.5016 47.2414 13.5589C47.2414 11.6456 46.1248 10.5372 44.2209 10.5372H41.9033ZM42.8998 11.3969H44.1097C45.4398 11.3969 46.2271 12.1977 46.2271 13.5715C46.2271 14.9664 45.4531 15.7587 44.1097 15.7587H42.8998V11.3969Z" fill="#344054"/>
<path d="M50.6337 16.7069C52.0483 16.7069 52.9157 15.8093 52.9157 14.3216C52.9157 12.8424 52.0438 11.9406 50.6337 11.9406C49.2191 11.9406 48.3472 12.8424 48.3472 14.3216C48.3472 15.8093 49.2147 16.7069 50.6337 16.7069ZM50.6337 15.902C49.8018 15.902 49.3348 15.3246 49.3348 14.3216C49.3348 13.3271 49.8018 12.7455 50.6337 12.7455C51.4611 12.7455 51.9326 13.3271 51.9326 14.3216C51.9326 15.3204 51.4611 15.902 50.6337 15.902Z" fill="#344054"/>
<path d="M60.3027 12.0291H59.3463L58.4833 15.5311H58.4077L57.4112 12.0291H56.4949L55.4984 15.5311H55.4272L54.5598 12.0291H53.5901L54.9246 16.6184H55.9077L56.9041 13.2386H56.9797L57.9806 16.6184H58.9726L60.3027 12.0291Z" fill="#344054"/>
<path d="M61.4041 16.6184H62.3605V13.9339C62.3605 13.2175 62.8098 12.7708 63.517 12.7708C64.2243 12.7708 64.5624 13.1374 64.5624 13.8749V16.6184H65.5188V13.6474C65.5188 12.5559 64.9227 11.9406 63.8418 11.9406C63.1122 11.9406 62.6318 12.2482 62.3961 12.7581H62.3249V12.0291H61.4041V16.6184Z" fill="#344054"/>
<path d="M67.025 16.6184H67.9814V10.238H67.025V16.6184Z" fill="#344054"/>
<path d="M71.5784 16.7069C72.993 16.7069 73.8604 15.8093 73.8604 14.3216C73.8604 12.8424 72.9885 11.9406 71.5784 11.9406C70.1638 11.9406 69.2919 12.8424 69.2919 14.3216C69.2919 15.8093 70.1594 16.7069 71.5784 16.7069ZM71.5784 15.902C70.7465 15.902 70.2795 15.3246 70.2795 14.3216C70.2795 13.3271 70.7465 12.7455 71.5784 12.7455C72.4058 12.7455 72.8773 13.3271 72.8773 14.3216C72.8773 15.3204 72.4058 15.902 71.5784 15.902Z" fill="#344054"/>
<path d="M76.71 15.9315C76.1896 15.9315 75.8114 15.6913 75.8114 15.2783C75.8114 14.8737 76.1139 14.6588 76.7812 14.6166L77.9645 14.545V14.9285C77.9645 15.4974 77.4307 15.9315 76.71 15.9315ZM76.4654 16.6942C77.1015 16.6942 77.6308 16.433 77.92 15.9736H77.9956V16.6184H78.9164V13.483C78.9164 12.5137 78.2314 11.9406 77.017 11.9406C75.9182 11.9406 75.1353 12.4463 75.0374 13.2344H75.9627C76.0695 12.9099 76.4387 12.7244 76.9725 12.7244C77.6264 12.7244 77.9645 12.9984 77.9645 13.483V13.8791L76.6522 13.9508C75.5001 14.0182 74.8506 14.4944 74.8506 15.3204C74.8506 16.159 75.5312 16.6942 76.4654 16.6942Z" fill="#344054"/>
<path d="M82.1619 16.6942C82.8292 16.6942 83.3941 16.395 83.6833 15.8935H83.7589V16.6184H84.6753V10.238H83.7189V12.7581H83.6477C83.3852 12.2524 82.8247 11.9532 82.1619 11.9532C80.9386 11.9532 80.1513 12.8719 80.1513 14.3216C80.1513 15.7755 80.9297 16.6942 82.1619 16.6942ZM82.4333 12.7666C83.234 12.7666 83.7367 13.3692 83.7367 14.3258C83.7367 15.2867 83.2384 15.8809 82.4333 15.8809C81.6237 15.8809 81.1388 15.2951 81.1388 14.3216C81.1388 13.3566 81.6281 12.7666 82.4333 12.7666Z" fill="#344054"/>
<path d="M90.8772 16.7069C92.2918 16.7069 93.1592 15.8093 93.1592 14.3216C93.1592 12.8424 92.2873 11.9406 90.8772 11.9406C89.4626 11.9406 88.5907 12.8424 88.5907 14.3216C88.5907 15.8093 89.4582 16.7069 90.8772 16.7069ZM90.8772 15.902C90.0453 15.902 89.5783 15.3246 89.5783 14.3216C89.5783 13.3271 90.0453 12.7455 90.8772 12.7455C91.7046 12.7455 92.1761 13.3271 92.1761 14.3216C92.1761 15.3204 91.7046 15.902 90.8772 15.902Z" fill="#344054"/>
<path d="M94.4252 16.6184H95.3816V13.9339C95.3816 13.2175 95.8309 12.7708 96.5382 12.7708C97.2455 12.7708 97.5835 13.1374 97.5835 13.8749V16.6184H98.5399V13.6474C98.5399 12.5559 97.9439 11.9406 96.8629 11.9406C96.1334 11.9406 95.653 12.2482 95.4172 12.7581H95.346V12.0291H94.4252V16.6184Z" fill="#344054"/>
<path d="M102.945 10.887V12.0502H102.175V12.8129H102.945V15.4047C102.945 16.2897 103.367 16.6437 104.43 16.6437C104.617 16.6437 104.795 16.6226 104.951 16.5973V15.843C104.817 15.8556 104.733 15.864 104.586 15.864C104.11 15.864 103.901 15.6533 103.901 15.1729V12.8129H104.951V12.0502H103.901V10.887H102.945Z" fill="#344054"/>
<path d="M106.235 16.6184H107.191V13.9381C107.191 13.2428 107.627 12.775 108.41 12.775C109.086 12.775 109.446 13.1459 109.446 13.8791V16.6184H110.403V13.6558C110.403 12.5643 109.767 11.9448 108.735 11.9448C108.005 11.9448 107.494 12.2524 107.258 12.7666H107.182V10.238H106.235V16.6184Z" fill="#344054"/>
<path d="M113.853 12.7118C114.56 12.7118 115.023 13.1796 115.045 13.9002H112.599C112.652 13.1838 113.146 12.7118 113.853 12.7118ZM115.041 15.3794C114.863 15.7376 114.467 15.9357 113.889 15.9357C113.123 15.9357 112.63 15.4258 112.599 14.6208V14.5703H116.019V14.2542C116.019 12.8129 115.205 11.9406 113.857 11.9406C112.492 11.9406 111.624 12.8719 111.624 14.3385C111.624 15.805 112.474 16.7069 113.862 16.7069C114.97 16.7069 115.744 16.2012 115.962 15.3794H115.041Z" fill="#344054"/>
<path d="M30.2396 22.3054C30.2628 20.5985 31.2304 18.9834 32.7653 18.0894C31.797 16.7793 30.1751 15.9486 28.4876 15.8986C26.6878 15.7196 24.943 16.9188 24.0258 16.9188C23.0909 16.9188 21.6789 15.9163 20.1583 15.946C18.1762 16.0066 16.3285 17.0742 15.3642 18.7158C13.2914 22.1157 14.8375 27.1125 16.8231 29.8607C17.8166 31.2065 18.9776 32.7097 20.4969 32.6564C21.9835 32.598 22.5387 31.7583 24.3332 31.7583C26.1111 31.7583 26.632 32.6564 28.1821 32.6225C29.7773 32.598 30.7824 31.2708 31.741 29.9123C32.4547 28.9534 33.004 27.8936 33.3684 26.7722C31.4937 26.021 30.2418 24.2337 30.2396 22.3054Z" fill="#344054"/>
<path d="M27.3118 14.0912C28.1816 13.102 28.6101 11.8305 28.5063 10.5468C27.1775 10.6791 25.95 11.2807 25.0685 12.232C24.2064 13.1614 23.7578 14.4105 23.8426 15.6451C25.172 15.6581 26.4788 15.0727 27.3118 14.0912Z" fill="#344054"/>
</svg>
