<svg width="37" height="30" viewBox="0 0 37 30" fill="none" xmlns="http://www.w3.org/2000/svg">
<path d="M36.75 0.727051C32.5937 0.727051 28.4846 1.77441 24.8643 3.75785C22.9254 4.81962 21.1349 6.13668 19.5441 7.67499C19.1697 8.03502 18.8032 8.41207 18.4525 8.79698C17.2794 10.0852 16.239 11.4992 15.3654 12.9982C15.0554 13.5363 14.7112 14.0613 14.3434 14.5627C14.2948 14.6282 14.2489 14.6936 14.1963 14.7578C10.9792 19.0009 6.07808 21.4334 0.75 21.4334V29.2729C4.90632 29.2729 9.01535 28.2255 12.6357 26.2434C14.5707 25.1843 16.3612 23.8646 17.9559 22.3263C18.3303 21.9649 18.6968 21.5879 19.0488 21.2043C20.2232 19.9147 21.2597 18.5034 22.1333 17.0031L22.1911 16.9062C22.4866 16.4008 22.8124 15.9086 23.1553 15.4399C23.2039 15.3757 23.2525 15.309 23.3037 15.2409C26.5195 10.9991 31.4219 8.56525 36.75 8.56525V0.727051Z" fill="#A2AFC8"/>
<path d="M36.75 0.727051C32.5937 0.727051 28.4846 1.77441 24.8643 3.75785C22.9254 4.81962 21.1349 6.13668 19.5441 7.67499C19.1697 8.03502 18.8032 8.41207 18.4525 8.79698C17.2794 10.0852 16.239 11.4992 15.3654 12.9982C15.0554 13.5363 14.7112 14.0613 14.3434 14.5627C14.2948 14.6282 14.2489 14.6936 14.1963 14.7578C10.9792 19.0009 6.07808 21.4334 0.75 21.4334V29.2729C4.90632 29.2729 9.01535 28.2255 12.6357 26.2434C14.5707 25.1843 16.3612 23.8646 17.9559 22.3263C18.3303 21.9649 18.6968 21.5879 19.0488 21.2043C20.2232 19.9147 21.2597 18.5034 22.1333 17.0031L22.1911 16.9062C22.4866 16.4008 22.8124 15.9086 23.1553 15.4399C23.2039 15.3757 23.2525 15.309 23.3037 15.2409C26.5195 10.9991 31.4219 8.56525 36.75 8.56525V0.727051Z" fill="#A2AFC8"/>
<path d="M36.75 21.436C31.4219 21.436 26.5195 19.0022 23.3011 14.7591C23.2538 14.6949 23.2039 14.6308 23.1553 14.5614C22.7888 14.0639 22.4446 13.5376 22.1346 12.9982C21.261 11.5005 20.2219 10.0878 19.0475 8.79826C18.6968 8.41598 18.3303 8.03893 17.9559 7.67759C16.3651 6.13927 14.5759 4.82091 12.6357 3.76045C9.01535 1.77832 4.90632 0.730957 0.75 0.730957V8.57046C6.07808 8.57046 10.9805 11.003 14.1989 15.2461C14.2489 15.3102 14.2961 15.377 14.3447 15.4412C14.6902 15.9112 15.016 16.4047 15.3076 16.9048L15.3694 17.007C16.2416 18.5034 17.2794 19.9147 18.4525 21.2056C18.8019 21.5879 19.1697 21.9649 19.5441 22.3263C21.1375 23.8646 22.928 25.1842 24.8643 26.2434C28.4846 28.2255 32.5937 29.2729 36.75 29.2729V21.436Z" fill="#A2AFC8"/>
</svg>
