<svg width="37" height="16" viewBox="0 0 37 16" fill="none" xmlns="http://www.w3.org/2000/svg">
<g clip-path="url(#clip0_1005_5860)">
<path d="M25.9087 11.4582V2.20691H27.7682V11.4582H25.9087Z" fill="#7E8EAE"/>
<path d="M4.23651 14.2062H0.25V4.95496H4.0762C5.93577 4.95496 7.01928 5.96841 7.01928 7.5537C7.01928 8.57986 6.32341 9.24301 5.84175 9.46381C6.41668 9.72354 7.15261 10.3081 7.15261 11.5431C7.15261 13.2706 5.93577 14.2062 4.23651 14.2062ZM3.92902 6.56643H2.10954V8.69734H3.92902C4.71818 8.69734 5.15974 8.26848 5.15974 7.63153C5.15974 6.99528 4.71818 6.56643 3.92902 6.56643ZM4.04925 10.3216H2.10954V12.5954H4.04925C4.8923 12.5954 5.29306 12.076 5.29306 11.4518C5.29306 10.8283 4.89156 10.3216 4.04925 10.3216Z" fill="#A2AFC8"/>
<path d="M12.8243 10.4121V14.2062H10.9779V10.4121L8.11499 4.95496H10.1348L11.9142 8.68389L13.6667 4.95496H15.6865L12.8243 10.4121Z" fill="#A2AFC8"/>
<path d="M20.9584 14.2062H16.9719V4.95496H20.7981C22.6577 4.95496 23.7412 5.96841 23.7412 7.5537C23.7412 8.57986 23.0453 9.24301 22.5637 9.46381C23.1386 9.72354 23.8746 10.3081 23.8746 11.5431C23.8746 13.2706 22.6577 14.2062 20.9584 14.2062ZM20.651 6.56643H18.8315V8.69734H20.651C21.4401 8.69734 21.8817 8.26848 21.8817 7.63153C21.8817 6.99528 21.4401 6.56643 20.651 6.56643ZM20.7712 10.3216H18.8315V12.5954H20.7712C21.6142 12.5954 22.015 12.076 22.015 11.4518C22.015 10.8283 21.6142 10.3216 20.7712 10.3216Z" fill="#A2AFC8"/>
<path d="M33.7615 6.56643V14.2069H31.902V6.56643H29.4136V4.95496H36.2499V6.56643H33.7615Z" fill="#A2AFC8"/>
</g>
<defs>
<clipPath id="clip0_1005_5860">
<rect width="36" height="14.069" fill="white" transform="translate(0.25 0.965576)"/>
</clipPath>
</defs>
</svg>
