<svg width="33" height="32" viewBox="0 0 33 32" fill="none" xmlns="http://www.w3.org/2000/svg">
<path d="M21.3765 10.6671H12.1321C11.7393 10.6671 11.4209 10.9854 11.4209 11.3781V20.6227C11.4209 21.0154 11.7393 21.3339 12.1321 21.3339H21.3765C21.7693 21.3339 22.0877 21.0154 22.0877 20.6227V11.3781C22.0877 10.9854 21.7693 10.6671 21.3765 10.6671Z" fill="#A2AFC8"/>
<path d="M10.7056 0H1.46117C1.06844 0 0.75 0.318295 0.75 0.711165V9.9556C0.75 10.3483 1.06844 10.6668 1.46117 10.6668H10.7056C11.0985 10.6668 11.4168 10.3483 11.4168 9.9556V0.711165C11.4168 0.318295 11.0985 0 10.7056 0Z" fill="#A2AFC8"/>
<path d="M32.039 0H22.7944C22.4017 0 22.0833 0.318295 22.0833 0.711165V9.9556C22.0833 10.3483 22.4017 10.6668 22.7944 10.6668H32.039C32.4318 10.6668 32.7501 10.3483 32.7501 9.9556V0.711165C32.7501 0.318295 32.4318 0 32.039 0Z" fill="#A2AFC8"/>
<path d="M10.7056 21.3333H1.46117C1.06844 21.3333 0.75 21.6515 0.75 22.0443V31.2889C0.75 31.6816 1.06844 32 1.46117 32H10.7056C11.0985 32 11.4168 31.6816 11.4168 31.2889V22.0443C11.4168 21.6515 11.0985 21.3333 10.7056 21.3333Z" fill="#A2AFC8"/>
<path d="M32.039 21.3333H22.7944C22.4017 21.3333 22.0833 21.6515 22.0833 22.0443V31.2889C22.0833 31.6816 22.4017 32 22.7944 32H32.039C32.4318 32 32.7501 31.6816 32.7501 31.2889V22.0443C32.7501 21.6515 32.4318 21.3333 32.039 21.3333Z" fill="#A2AFC8"/>
</svg>
