<svg width="48" height="48" viewBox="0 0 48 48" fill="none" xmlns="http://www.w3.org/2000/svg">
<rect width="48" height="48" rx="24" fill="#344054" fill-opacity="0.1"/>
<path d="M18.5 34V27" stroke="#344054" stroke-width="1.5" stroke-miterlimit="10" stroke-linecap="round" stroke-linejoin="round"/>
<path d="M18.5 17V14" stroke="#344054" stroke-width="1.5" stroke-miterlimit="10" stroke-linecap="round" stroke-linejoin="round"/>
<path d="M29.5 34V31" stroke="#344054" stroke-width="1.5" stroke-miterlimit="10" stroke-linecap="round" stroke-linejoin="round"/>
<path d="M29.5 21V14" stroke="#344054" stroke-width="1.5" stroke-miterlimit="10" stroke-linecap="round" stroke-linejoin="round"/>
<path d="M21.5 19V25C21.5 26.1 21 27 19.5 27H17.5C16 27 15.5 26.1 15.5 25V19C15.5 17.9 16 17 17.5 17H19.5C21 17 21.5 17.9 21.5 19Z" stroke="#344054" stroke-width="1.5" stroke-miterlimit="10" stroke-linecap="round" stroke-linejoin="round"/>
<path d="M32.5 23V29C32.5 30.1 32 31 30.5 31H28.5C27 31 26.5 30.1 26.5 29V23C26.5 21.9 27 21 28.5 21H30.5C32 21 32.5 21.9 32.5 23Z" stroke="#344054" stroke-width="1.5" stroke-miterlimit="10" stroke-linecap="round" stroke-linejoin="round"/>
</svg>
