<svg width="48" height="48" viewBox="0 0 48 48" fill="none" xmlns="http://www.w3.org/2000/svg">
<rect width="48" height="48" rx="24" fill="#344054" fill-opacity="0.1"/>
<path d="M34 25V21C34 16 32 14 27 14H21C16 14 14 16 14 21V27C14 32 16 34 21 34H25" stroke="#344054" stroke-width="1.5" stroke-linecap="round" stroke-linejoin="round"/>
<path d="M19.3301 26.49L21.7101 23.4C22.0501 22.96 22.6801 22.88 23.1201 23.22L24.9501 24.66C25.3901 25 26.0201 24.92 26.3601 24.49L28.6701 21.51" stroke="#344054" stroke-width="1.5" stroke-linecap="round" stroke-linejoin="round"/>
<path d="M31.4802 27.8199L31.7602 28.3899C31.9002 28.6699 32.2502 28.9299 32.5602 28.9899L32.9402 29.0499C34.0802 29.2399 34.3502 30.0799 33.5302 30.9099L33.1802 31.2599C32.9502 31.4999 32.8202 31.9599 32.8902 32.2799L32.9402 32.4899C33.2502 33.8699 32.5202 34.3999 31.3202 33.6799L31.0602 33.5299C30.7502 33.3499 30.2502 33.3499 29.9402 33.5299L29.6802 33.6799C28.4702 34.4099 27.7402 33.8699 28.0602 32.4899L28.1102 32.2799C28.1802 31.9599 28.0502 31.4999 27.8202 31.2599L27.4702 30.9099C26.6502 30.0799 26.9202 29.2399 28.0602 29.0499L28.4402 28.9899C28.7402 28.9399 29.1002 28.6699 29.2402 28.3899L29.5202 27.8199C30.0602 26.7299 30.9402 26.7299 31.4802 27.8199Z" stroke="#344054" stroke-width="1.5" stroke-linecap="round" stroke-linejoin="round"/>
</svg>
